<?xml version="1.0" encoding="UTF-8" standalone="no"?>
<!-- Created with Inkscape (http://www.inkscape.org/) -->

<svg
   xmlns:dc="http://purl.org/dc/elements/1.1/"
   xmlns:cc="http://creativecommons.org/ns#"
   xmlns:rdf="http://www.w3.org/1999/02/22-rdf-syntax-ns#"
   xmlns:svg="http://www.w3.org/2000/svg"
   xmlns="http://www.w3.org/2000/svg"
   xmlns:sodipodi="http://sodipodi.sourceforge.net/DTD/sodipodi-0.dtd"
   xmlns:inkscape="http://www.inkscape.org/namespaces/inkscape"
   width="209.79317mm"
   height="75.044304mm"
   viewBox="0 0 209.79317 75.044304"
   version="1.1"
   id="svg8"
   inkscape:version="0.92.2 (5c3e80d, 2017-08-06)"
   sodipodi:docname="egw_signo_gray_three_dots.svg">
  <defs
     id="defs2" />
  <sodipodi:namedview
     id="base"
     pagecolor="#ffffff"
     bordercolor="#666666"
     borderopacity="1.0"
     inkscape:pageopacity="0.0"
     inkscape:pageshadow="2"
     inkscape:zoom="1.979899"
     inkscape:cx="588.29839"
     inkscape:cy="22.839722"
     inkscape:document-units="mm"
     inkscape:current-layer="g891"
     showgrid="false"
     inkscape:measure-start="295.714,448.571"
     inkscape:measure-end="582.143,479.286"
     inkscape:window-width="1920"
     inkscape:window-height="1017"
     inkscape:window-x="-8"
     inkscape:window-y="-8"
     inkscape:window-maximized="1" />
  <metadata
     id="metadata5">
    <rdf:RDF>
      <cc:Work
         rdf:about="">
        <dc:format>image/svg+xml</dc:format>
        <dc:type
           rdf:resource="http://purl.org/dc/dcmitype/StillImage" />
        <dc:title />
      </cc:Work>
    </rdf:RDF>
  </metadata>
  <g
     inkscape:label="Layer 1"
     inkscape:groupmode="layer"
     id="layer1"
     transform="translate(0.70886045,-0.93674058)">
    <g
       transform="translate(-109.58777,16.957397)"
       id="layer1-7"
       inkscape:label="Layer 1">
      <g
         id="g891"
         transform="matrix(0.89509092,0,0,0.87530448,108.54998,-89.959975)">
        <path
           style="fill:#d5d9d8;fill-opacity:1;stroke-width:0.26458335"
           d="m 7.8292757,169.58412 c 0.34479,-6.71638 6.8599903,-12.60926 9.4588603,-19.03496 2.83017,-3.62397 12.21382,-21.01891 3.56706,-12.06397 -4.9716,5.16614 -13.7751003,11.92307 -20.4873203,8.60433 -0.0416,-5.6332 3.2185,-11.96036 6.31433,-17.34192 -0.31105,-2.70502 6.4550403,-8.36051 7.0741303,-10.69937 1.21636,-1.39272 5.03475,-4.31235 5.97022,-6.80547 3.38829,-3.97744 4.69063,-4.9889 9.59987,-8.68276 3.641,-1.99868 6.69772,-7.782403 13.06591,-9.061963 7.78206,-3.2184 1.07482,9.893423 -0.76124,13.163043 -2.22019,5.51657 -4.00359,9.19636 -6.08547,13.12518 -3.70381,8.34177 -8.14271,17.81926 -13.36146,26.06976 -6.17522,13.24337 6.55487,-4.33707 9.71089,-8.01664 5.81552,-7.51018 11.79611,-14.73645 15.80187,-22.99973 6.15477,-5.61083 8.13739,-15.2349 13.51327,-21.950743 8.20186,-0.68113 -0.97588,12.921383 -1.58744,17.211753 -4.02227,7.37672 -8.05168,17.21498 -12.80052,24.07432 -1.87852,6.16175 -8.1518,12.28999 -9.50383,18.65589 -7.7728,8.07916 1.16764,7.24279 5.36329,-1.22847 5.14741,-6.28714 6.91934,-17.19699 13.61276,-20.29446 3.2067,5.40419 11.31601,-7.31325 17.35119,-6.32692 0.1024,-6.60188 8.44472,-13.66987 8.63061,-21.81535 0.92919,-6.590923 4.45855,-14.129839 8.56731,-18.332679 6.65065,-5.74041 6.56217,8.276996 3.17499,12.556956 -3.46966,5.922503 -1.77447,7.791913 -6.08543,10.570793 -7.24866,9.22111 -12.80704,20.21413 -15.74271,31.80989 -2.119,3.6367 -6.6373,14.95402 -0.52922,7.23943 5.65415,-5.89468 8.47522,-8.1349 15.02821,-12.85772 9.25625,-8.89644 7.76156,6.96282 5.025,7.03891 -0.84934,5.11899 -5.17233,5.76757 -4.58057,10.42001 0.36677,5.2951 8.72401,-2.11436 8.30515,-2.61084 4.26158,-4.17928 5.485794,-5.10597 10.790494,-9.66318 4.66907,-9.93524 18.01025,-12.82235 8.95403,0.26458 -5.64264,6.68516 -4.17932,14.15686 4.33459,5.03829 6.23958,-7.19053 13.11935,-11.70009 18.68416,-20.38412 2.15105,-5.4933 15.56899,-15.44084 7.00855,-18.16469 9.492,-7.539913 17.53089,-4.79301 28.85523,-4.9242 5.18282,-0.15697 9.08934,0.0531 14.40153,-0.86251 7.66876,-0.33567 15.74902,0.0976 23.15898,-0.0412 9.85691,-3.204113 8.63941,10.24348 1.93944,2.69383 -3.51189,5.38644 -10.68617,-1.20412 -18.08465,0.92095 -10.79904,-0.36133 -14.05369,0.49013 -23.83388,-0.24241 -10.06426,-0.94617 -16.18264,4.33138 -19.95131,13.09144 -5.42335,9.627 -11.29149,19.13089 -14.55208,29.78266 2.13987,6.30788 13.35451,-3.26074 15.88047,-4.59104 2.06205,-3.28059 3.88802,-10.51016 10.04515,-13.17813 1.7952,-6.10765 15.23274,-5.82737 10.32237,-1.94694 -7.03215,7.00745 -18.28289,18.92856 -1.31464,16.06081 7.33932,-0.40886 5.65742,5.59291 -1.35277,3.89163 -7.12535,-0.0307 -15.35129,-6.388 -21.57989,1.19062 -4.69203,2.55097 -7.20921,5.05486 -12.14269,5.40824 -11.91997,-1.84494 -4.82229,-12.97663 -3.18732,-19.40287 -6.84603,3.45134 -11.19302,13.95486 -16.87507,15.58211 -6.97577,7.02239 -14.94062,-0.78166 -9.20044,-7.57628 -5.62185,2.40239 -6.94944,8.84035 -12.543464,10.71026 -3.6249,1.19069 -10.09708,8.38765 -12.55628,0.92939 -1.9773,-4.62428 11.46616,-18.39696 6.52566,-17.68944 -7.3083,5.27394 -13.55078,9.06664 -19.21687,17.72709 -5.40986,9.96388 -15.57377,11.15036 -7.9575,-1.59992 3.80972,-8.33707 7.36456,-16.75148 10.78399,-25.26714 -4.86355,2.65734 -14.90884,9.42017 -20.27348,13.40143 -4.55732,4.22637 -2.40909,9.4906 -6.89702,11.58811 3.18091,0.94782 -4.94617,2.89297 -5.03371,6.24311 -7.2312,9.59017 -15.61107,3.54274 -6.35,-5.7622 3.60624,-6.82808 4.703,-9.10096 8.46666,-15.17649 2.56536,-5.83744 6.09865,-10.53757 9.24923,-17.30602 2.56467,-4.37037 6.78419,-12.57846 5.15871,-15.63536 -4.36354,9.4677 -10.19398,18.02494 -16.26004,25.974 -10.66252,13.05025 -20.13137,26.86114 -32.1865603,39.12294 l -0.82021,-0.62316 z M 66.470606,154.8367 c 1.52689,-5.67021 -2.67174,3.88566 0,0 z m -47.33039,-1.13797 c -0.65602,-1.39408 -0.65597,1.3941 0,0 z m 48.68312,-1.32331 c -1.98505,-2.2415 1.04058,2.63956 0,0 z m 32.0148,-1.98398 c -0.67603,-0.94919 -0.67598,0.9492 0,0 z M 6.7840957,145.19741 c 9.6260003,-0.53723 16.7465103,-19.35352 21.3519503,-14.54687 0.25773,-2.92515 5.18448,-9.50665 6.49129,-15.01862 3.14879,-5.34175 3.90156,-7.28908 6.4733,-12.63748 3.37281,-8.525453 -0.73295,-6.363903 -6.63594,-1.00036 -0.56266,3.32242 -5.40961,4.12345 -7.44672,7.44836 -2.70073,3.25055 -4.80516,4.51271 -6.4226,6.91344 -3.04147,2.70333 -4.34477,8.31571 -7.64067,8.39081 -3.8529003,3.7983 -4.5506403,9.65441 -6.5920403,11.35405 -1.15656,2.51189 -5.67538,11.12172 0.42143,9.09667 z m 72.9457103,-4.33097 c -0.65255,-0.94251 -0.31998,0.96735 0,0 z m 31.038664,-1.53762 c -2.65033,1.1171 -0.18238,1.82399 0,0 z m 50.62191,-2.56342 c 4.55044,-5.54944 -3.90196,1.84917 0,0 z m -26.30622,-2.77812 c -0.14701,-2.51182 -1.24306,2.60708 0,0 z M 26.374166,133.19353 c -2.21004,-2.63065 1.08105,2.73716 0,0 z M 166.3047,133.4626 c 1.11648,-4.02532 -4.31792,1.64235 0,0 z M 27.342296,132.13519 c -1.64024,-1.99618 -0.10613,1.6785 0,0 z m 141.283144,-2.07403 c -2.87145,0.0706 -1.77874,3.67845 0,0 z M 14.835236,122.45034 c -1.0477,-0.55602 -0.24728,0.59617 0,0 z m 68.99415,-12.0126 c -3.40431,-2.08197 2.19612,2.58834 0,0 z m 1.45667,-1.07233 c 4.9449,-5.32489 6.51572,-12.907383 8.99583,-19.637179 -7.13915,-0.47137 -7.11463,13.072719 -9.90142,19.284679 -0.42486,0.62269 1.12238,1.60676 0.90559,0.3525 z m 64.741034,-1.18761 c 1.13933,-1.77353 -1.99342,1.32588 0,0 z m 59.87772,-3.29469 c -0.676,-0.94918 -0.676,0.94918 0,0 z M 59.621466,103.04209 c -2.62472,1.22817 -1.42128,0.63358 0,0 z m 131.762514,1.04727 c -0.676,-0.94916 -0.676,0.94916 0,0 z m 23.8125,-1.85208 c -0.65251,-0.94254 -0.32002,0.96735 0,0 z M 60.415216,100.38519 c -0.0837,-1.884773 -1.59499,2.11164 0,0 z m 80.433344,53.71042 c 1.01714,-0.94858 0.67817,0.97998 0,0 z m 48.45089,-4.11752 c -7.87833,-8.63347 4.48545,-10.72369 4.3492,-4.62678 0,0 -0.17601,5.20039 -4.3492,4.62678 z m -56.2561,-41.91998 c -6.80593,-0.59661 -6.64663,-16.428843 0.66149,-12.964593 5.0183,-0.0725 -1.87105,6.190783 0.25655,12.728563 l -0.37328,0.50064 -0.54477,-0.26458 z"
           id="path21"
           inkscape:connector-curvature="0"
           sodipodi:nodetypes="cccccccccccccccccccccccccccccccccccccccccccccccccccccccccccccccccccccccccccccccccccccccccccccccccccccccccccccccccccccccccccccccccccccccc" />
        <path
           sodipodi:nodetypes="ccc"
           inkscape:connector-curvature="0"
           id="path865"
           d="m 210.31174,148.09019 c -6.83507,-5.36285 2.1721,-7.40303 4.52308,-5.1211 0,0 2.08238,7.26517 -4.52308,5.1211 z"
           style="fill:#d5d9d8;fill-opacity:1;stroke-width:0.26458335" />
        <path
           sodipodi:nodetypes="ccc"
           inkscape:connector-curvature="0"
           id="path865-3"
           d="m 229.91498,148.15337 c -6.83507,-5.36285 2.1721,-7.40303 4.52308,-5.1211 0,0 2.08238,7.26517 -4.52308,5.1211 z"
           style="fill:#d5d9d8;fill-opacity:1;stroke-width:0.26458338" />
      </g>
    </g>
  </g>
</svg>
